<?xml version="1.0" encoding="utf-8"?>
<!-- Generator: Adobe Illustrator 26.5.0, SVG Export Plug-In . SVG Version: 6.00 Build 0)  -->
<svg version="1.1" id="Layer_1" xmlns="http://www.w3.org/2000/svg" xmlns:xlink="http://www.w3.org/1999/xlink" x="0px" y="0px"
	 viewBox="0 0 179.8 69.4" style="enable-background:new 0 0 179.8 69.4;" xml:space="preserve">
<style type="text/css">
	.st0{fill:#1BA39E;}
</style>
<g>
	<g>
		<path class="st0" d="M96,33.3h4.2v14.6c-1.6,0.9-3.3,1.5-5.2,2c-1.9,0.5-3.9,0.7-6.1,0.7c-2.4,0-4.5-0.4-6.5-1.2
			c-2-0.8-3.7-1.9-5.1-3.3c-1.4-1.4-2.5-3.1-3.3-5c-0.8-1.9-1.2-4.1-1.2-6.4c0-2.4,0.4-4.5,1.2-6.5c0.8-1.9,1.9-3.6,3.4-5
			c1.4-1.4,3.1-2.5,5.1-3.2c2-0.8,4.1-1.2,6.4-1.2c2.4,0,4.6,0.4,6.5,1.1c1.9,0.7,3.5,1.7,4.7,2.9L97,25.8c-0.9-1-2.1-1.8-3.5-2.4
			c-1.4-0.6-3-0.9-4.7-0.9c-1.8,0-3.4,0.3-4.8,1c-1.4,0.6-2.6,1.5-3.6,2.6c-1,1.1-1.8,2.4-2.3,3.9c-0.5,1.5-0.8,3-0.8,4.7
			c0,1.7,0.3,3.3,0.8,4.7c0.5,1.5,1.3,2.8,2.3,3.9c1,1.1,2.2,2,3.7,2.6c1.4,0.6,3.1,0.9,4.9,0.9c1.4,0,2.7-0.1,3.9-0.4
			c1.2-0.3,2.2-0.6,3.1-1.1v-8.4L96,33.3z"/>
		<path class="st0" d="M111.6,46h13.5v3.8h-17.7V19.6h4.2V46z"/>
		<path class="st0" d="M133.4,49.8h-4.2V19.6h4.2V49.8z"/>
		<path class="st0" d="M142,49.8h-4.7l13.1-30.2h3.8l13,30.2h-4.8l-3.1-7.4H145L142,49.8z M146.5,38.7h11.3l-5.6-14.2L146.5,38.7z"
			/>
	</g>
	<g>
		<path class="st0" d="M53.9,41.6c0-5.8-4.7-10.4-10.5-10.3c-5.6,0.1-10.1,4.6-10.2,10.2c-0.1,5.8,4.6,10.5,10.3,10.5
			c0.1,0,0.1,0,0.2,0c0,0,0.1,0,0.1,0c3.2,0,5.7-2.6,5.6-5.8c-0.1-2.9-2.4-5.2-5.3-5.3c-3.2-0.1-5.8,2.4-5.8,5.6
			c0,1.1,0.3,2.1,0.9,3c-1-1.3-1.6-2.9-1.6-4.6c0.1-3.8,3.1-6.8,6.9-6.9c4-0.1,7.2,3.1,7.2,7.1c0,0.1,0,0.3,0,0.4
			c-0.1,2-1.2,3.8-2.8,5c-2.5,1.8-5.5,2.9-8.8,2.9c-8,0-14.6-6.5-14.6-14.6C25.4,30.6,32,24,40.1,24c5.5,0,10,2.4,12.5,6.9
			c-0.1-0.3-0.2-0.5-0.3-0.7l0,0v-7.9c0-5.3-4.3-9.6-9.6-9.6H28c-5.3,0-9.6,4.3-9.6,9.6v3.1c3.2-4.9,8.8-8.1,15.1-8.1
			c6.2,0,11.6,3.1,14.8,7.8c-3.2-2.8-7.4-4.4-12.2-4.3c-9.9,0.1-17.8,8.1-17.8,18c0,9.9,8.1,18,18,18c7.6,0,14.1-4.7,16.8-11.4
			c0,0.1-0.1,0.1-0.1,0.2C53.6,44.3,53.9,42.9,53.9,41.6z"/>
		<g>
			<path class="st0" d="M52.8,59.6H19.5c-3.8,0-6.9-3.1-6.9-6.9V16.6c0-3.8,3.1-6.9,6.9-6.9h33.3c3.8,0,6.9,3.1,6.9,6.9v36.1
				C59.7,56.5,56.6,59.6,52.8,59.6z M19.5,10.4c-3.5,0-6.3,2.8-6.3,6.3v36.1c0,3.5,2.8,6.3,6.3,6.3h33.3c3.5,0,6.3-2.8,6.3-6.3V16.6
				c0-3.5-2.8-6.3-6.3-6.3H19.5z"/>
		</g>
	</g>
</g>
</svg>
