<?xml version="1.0" encoding="utf-8"?>
<!-- Generator: Adobe Illustrator 26.5.0, SVG Export Plug-In . SVG Version: 6.00 Build 0)  -->
<svg version="1.1" id="Layer_1" xmlns="http://www.w3.org/2000/svg" xmlns:xlink="http://www.w3.org/1999/xlink" x="0px" y="0px"
	 viewBox="0 0 125.1 171.7" style="enable-background:new 0 0 125.1 171.7;" xml:space="preserve">
<style type="text/css">
	.st0{fill:#1BA39E;}
</style>
<g>
	<g>
		<path class="st0" d="M43.2,140.1H46v9.7c-1.1,0.6-2.2,1-3.4,1.3c-1.2,0.3-2.6,0.5-4.1,0.5c-1.6,0-3-0.3-4.3-0.8
			c-1.3-0.5-2.4-1.2-3.4-2.2c-0.9-0.9-1.7-2-2.2-3.3c-0.5-1.3-0.8-2.7-0.8-4.3c0-1.6,0.3-3,0.8-4.3c0.5-1.3,1.3-2.4,2.2-3.3
			c1-0.9,2.1-1.6,3.4-2.1c1.3-0.5,2.7-0.8,4.2-0.8c1.6,0,3,0.2,4.3,0.7c1.3,0.5,2.3,1.1,3.1,1.9l-2,2c-0.6-0.7-1.4-1.2-2.3-1.6
			c-0.9-0.4-2-0.6-3.1-0.6c-1.2,0-2.2,0.2-3.2,0.6c-0.9,0.4-1.7,1-2.4,1.7c-0.7,0.7-1.2,1.6-1.5,2.6c-0.4,1-0.5,2-0.5,3.1
			c0,1.1,0.2,2.2,0.5,3.1c0.4,1,0.9,1.8,1.5,2.6c0.7,0.7,1.5,1.3,2.4,1.7c1,0.4,2,0.6,3.2,0.6c0.9,0,1.8-0.1,2.6-0.3
			c0.8-0.2,1.5-0.4,2.1-0.7v-5.6L43.2,140.1z"/>
		<path class="st0" d="M53.6,148.6h8.9v2.5H50.8v-20h2.8V148.6z"/>
		<path class="st0" d="M68,151.1h-2.8v-20H68V151.1z"/>
		<path class="st0" d="M73.7,151.1h-3.1l8.7-20h2.5l8.6,20h-3.2l-2-4.9h-9.5L73.7,151.1z M76.7,143.7h7.5l-3.7-9.4L76.7,143.7z"/>
	</g>
	<g>
		<path class="st0" d="M94.5,83.6c0-11.5-9.4-20.8-21-20.7c-11.1,0.2-20.2,9.2-20.4,20.4c-0.2,11.5,9.2,21,20.7,21
			c0.1,0,0.3,0,0.4,0c0.1,0,0.2,0,0.2,0c6.3,0,11.4-5.3,11.1-11.7C85.3,86.9,80.7,82.3,75,82c-6.4-0.3-11.7,4.8-11.7,11.1
			c0,2.2,0.7,4.3,1.8,6c-2-2.5-3.2-5.7-3.2-9.2c0.2-7.5,6.3-13.6,13.8-13.8c8-0.2,14.5,6.2,14.5,14.1c0,0.3,0,0.6,0,0.9
			c-0.2,4-2.3,7.7-5.5,10.1c-4.9,3.7-11,5.9-17.6,5.9C51,107,37.9,94,37.8,78c-0.1-16.3,13-29.5,29.3-29.5c11,0,19.9,4.8,24.9,13.8
			c-0.2-0.5-0.5-1-0.7-1.5l0,0V45.1c0-10.5-8.6-19.1-19.1-19.1H43c-10.5,0-19.1,8.6-19.1,19.1v6.2c6.4-9.7,17.5-16.1,30.1-16.1
			c12.3,0,23.2,6.1,29.6,15.5c-6.3-5.6-14.7-8.8-24.3-8.7c-19.8,0.2-35.6,16.2-35.6,36c0,19.9,16.1,36,36,36
			c15.2,0,28.2-9.4,33.5-22.8c-0.1,0.1-0.1,0.2-0.2,0.3C94,89,94.5,86.4,94.5,83.6z"/>
		<g>
			<path class="st0" d="M92.4,119.7H25.9c-7.6,0-13.8-6.2-13.8-13.8V33.9c0-7.6,6.2-13.8,13.8-13.8h66.5c7.6,0,13.8,6.2,13.8,13.8
				v72.1C106.1,113.5,100,119.7,92.4,119.7z M25.9,21.4c-6.9,0-12.5,5.6-12.5,12.5v72.1c0,6.9,5.6,12.5,12.5,12.5h66.5
				c6.9,0,12.5-5.6,12.5-12.5V33.9c0-6.9-5.6-12.5-12.5-12.5H25.9z"/>
		</g>
	</g>
</g>
</svg>
