<svg width="16" height="10" viewBox="0 0 16 10" fill="none" xmlns="http://www.w3.org/2000/svg">
<path d="M15.5833 2.39586L8.58329 9.41669C8.49996 9.50003 8.40968 9.55919 8.31246 9.59419C8.21524 9.62919 8.11107 9.64642 7.99996 9.64586C7.88885 9.64586 7.78468 9.62864 7.68746 9.59419C7.59024 9.55975 7.49996 9.50058 7.41663 9.41669L0.395792 2.39586C0.201348 2.20142 0.104126 1.95836 0.104126 1.6667C0.104126 1.37503 0.208292 1.12503 0.416626 0.916696C0.624959 0.708362 0.868014 0.604196 1.14579 0.604196C1.42357 0.604196 1.66663 0.708362 1.87496 0.916696L7.99996 7.04169L14.125 0.916695C14.3194 0.72225 14.5591 0.625028 14.8441 0.625028C15.1291 0.625028 15.3755 0.729194 15.5833 0.937528C15.7916 1.14586 15.8958 1.38892 15.8958 1.66669C15.8958 1.94447 15.7916 2.18753 15.5833 2.39586Z" fill="#EEEDEC"/>
</svg>
